<svg height="512" viewBox="0 0 74 74" width="512" xmlns="http://www.w3.org/2000/svg"><g id="line_color" data-name="line color"><path d="m28.651 54.047v.006c.35 1.227 1.013 5.149 2.025 6.518a2.113 2.113 0 0 0 3.523-.239c.368-.675.921-3.523 1.651-4.357" fill="#e1e6e9"/><path d="m32.357 61.906a2.589 2.589 0 0 1 -2.085-1.039c-.828-1.12-1.39-3.6-1.8-5.412-.12-.527-.221-.973-.3-1.265a.5.5 0 1 1 .972-.237c.084.3.187.753.306 1.281.369 1.627.926 4.087 1.631 5.04a1.612 1.612 0 0 0 2.682-.183 10.253 10.253 0 0 0 .446-1.341 9.706 9.706 0 0 1 1.268-3.1.5.5 0 1 1 .752.658 9.975 9.975 0 0 0 -1.06 2.729 9.533 9.533 0 0 1 -.529 1.539 2.594 2.594 0 0 1 -2.283 1.33z" fill="#323c6b"/><path d="m35.758 55.968c.381 1.086.982 4.45 1.817 5.524a2.1 2.1 0 0 0 1.657.8h.552a2.1 2.1 0 0 0 1.89-1.191c.681-1.375 2.093-5.585 4.529-6.9" fill="#e1e6e9"/><path d="m39.783 62.79h-.552a2.583 2.583 0 0 1 -2.051-.99 13.955 13.955 0 0 1 -1.5-4.223c-.153-.609-.286-1.136-.394-1.443a.5.5 0 1 1 .943-.33c.123.35.261.9.42 1.529a14.088 14.088 0 0 0 1.319 3.853 1.59 1.59 0 0 0 1.263.6h.552a1.6 1.6 0 0 0 1.441-.91c.12-.243.262-.571.427-.955.809-1.872 2.16-5 4.313-6.17a.5.5 0 1 1 .477.879c-1.849 1-3.115 3.935-3.871 5.687-.175.4-.324.749-.448 1a2.587 2.587 0 0 1 -2.339 1.473z" fill="#323c6b"/><path d="m67.022 21.5-2.12 2.58s.74-.14 1.09 1.15-2.14 2.4-2.14 2.4.79.12.95 1.43c.2 1.55-2.28 2.21-2.28 2.21a2.133 2.133 0 0 1 .62 2.19c-.31 1.25-2.24 1.9-2.72 2.04 1.74-.46 1.53 1.18 1.37 1.7-.7 2.36-2.67 3.86-3.81 5.68-10.17 18-26.87 12.27-26.87 12.27-23.62-9.47-15.57-36.19-15.57-36.19l.09-.13a1.828 1.828 0 0 1 -.88-.73c-1.15-1.71-.07-3.63.59-4.54a12.667 12.667 0 0 0 -5.14 1 6.528 6.528 0 0 1 3.18-3.96 4.448 4.448 0 0 1 -.68-1.14 3.868 3.868 0 0 1 -.32-1.54 5.03 5.03 0 0 1 .73-2.52.778.778 0 0 1 .73-.39h.09a.8.8 0 0 0 .77-.58.8.8 0 0 1 .67-.58l.59-.08a.8.8 0 0 0 .6-.41l.17-.31a.813.813 0 0 1 .86-.4l.6.12a.766.766 0 0 0 .65-.15l.63-.48a.791.791 0 0 1 1.2.26 5.758 5.758 0 0 1 .22 3.91 7.29 7.29 0 0 1 5.01 4.11c1.64 4.35 2.05 10.84 9.95 15.67a21.821 21.821 0 0 0 11.22 1.43 19.433 19.433 0 0 0 8.46-3.12l8.56-6.17a2.158 2.158 0 0 1 1.3-.43 2.21 2.21 0 0 1 1.63 3.7z" fill="#e1e6e9"/><path d="m13.091 10.184a9.52 9.52 0 0 1 1.726-2.178 7.93 7.93 0 0 1 3.025-1.65 10.684 10.684 0 0 1 3.121-.356 5.705 5.705 0 0 0 -.291-3.6.791.791 0 0 0 -1.2-.26l-.63.48a.766.766 0 0 1 -.65.15l-.6-.12a.813.813 0 0 0 -.86.4l-.17.31a.8.8 0 0 1 -.6.41l-.59.08a.8.8 0 0 0 -.67.58.8.8 0 0 1 -.77.58h-.09a.778.778 0 0 0 -.73.39 5.03 5.03 0 0 0 -.73 2.52 3.868 3.868 0 0 0 .32 1.54 4.453 4.453 0 0 0 .389.724z" fill="#fe7058"/><path d="m67.022 21.5-2.12 2.58s.74-.14 1.09 1.15-2.14 2.4-2.14 2.4.79.12.95 1.43c.2 1.55-2.28 2.21-2.28 2.21a2.133 2.133 0 0 1 .62 2.19c-.31 1.25-2.24 1.9-2.72 2.04 1.74-.46 1.53 1.18 1.37 1.7-.7 2.36-2.67 3.86-3.81 5.68-10.17 18-26.87 12.27-26.87 12.27-7.42-2.968-11.712-7.65-14.112-12.658a25.946 25.946 0 0 0 12.39 9.66s16.7 5.73 26.87-12.27c1.14-1.82 3.11-3.32 3.81-5.68.16-.52.37-2.16-1.37-1.7.48-.14 2.41-.79 2.72-2.04a2.133 2.133 0 0 0 -.62-2.19s2.48-.66 2.28-2.21c-.16-1.31-.95-1.43-.95-1.43s2.49-1.1 2.14-2.4-1.09-1.15-1.09-1.15l2.12-2.582a2.359 2.359 0 0 0 .42-.67 2.2 2.2 0 0 1 1.3 3.67z" fill="#d5d6db"/><path d="m15.768 13.03s-2.584 2.743-1.013 5.068 5.2-.558 4.268-2.534c0 0 1.3 1.883 2.278.767s-.232-3.394-1.348-3.812" fill="#fe7058"/><path d="m16.316 19.463a2.336 2.336 0 0 1 -1.976-1.085c-1.775-2.626.946-5.567 1.063-5.691a.5.5 0 0 1 .729.685c-.022.024-2.289 2.484-.963 4.446a1.533 1.533 0 0 0 2.169.342c.9-.51 1.605-1.589 1.232-2.383a.5.5 0 0 1 .863-.5c.2.286.74.883 1.146.905a.414.414 0 0 0 .346-.182 1.393 1.393 0 0 0 .166-1.227 2.791 2.791 0 0 0 -1.314-1.788.5.5 0 0 1 .352-.937 3.743 3.743 0 0 1 1.933 2.481 2.289 2.289 0 0 1 -.384 2.128 1.408 1.408 0 0 1 -1.156.522 1.869 1.869 0 0 1 -.92-.343 3.721 3.721 0 0 1 -1.769 2.19 3.08 3.08 0 0 1 -1.517.437z" fill="#323c6b"/><path d="m10.2 15.06a.5.5 0 0 1 -.485-.619 6.986 6.986 0 0 1 3.242-4.17 6.773 6.773 0 0 1 8.043-4.446.5.5 0 1 1 -.225.975 5.771 5.771 0 0 0 -6.918 3.941.5.5 0 0 1 -.229.292 6.5 6.5 0 0 0 -2.6 2.681 12.311 12.311 0 0 1 4.33-.648.5.5 0 0 1 -.051 1 12.107 12.107 0 0 0 -4.905.95.5.5 0 0 1 -.202.044z" fill="#323c6b"/><circle cx="17.282" cy="9.865" fill="#323c6b" r=".921"/><path d="m35.48 30.3a45.907 45.907 0 0 0 15.048 4.14 1.6 1.6 0 0 1 1.059 2.66 19.829 19.829 0 0 1 -9.475 5.813c-7.732 2.044-16.809-4.3-16.809-4.3 5.177-2.184 8.397-5.013 10.177-8.313z" fill="#d5d6db"/><g fill="#323c6b"><path d="m41.549 42.587a16.878 16.878 0 0 1 -7.4-1.564.5.5 0 0 1 .468-.884 17.434 17.434 0 0 0 10.706 1.061.5.5 0 0 1 .2.98 20 20 0 0 1 -3.974.407z"/><path d="m46.938 40.446c-5.391 0-10.682-2.839-10.926-2.972a.5.5 0 0 1 .478-.879c.063.035 6.364 3.417 11.95 2.767a.5.5 0 1 1 .115.993 13.977 13.977 0 0 1 -1.617.091z"/><path d="m50.138 38.133c-4.766 0-10.854-2.657-11.128-2.778a.5.5 0 1 1 .4-.915c.07.031 7.066 3.084 11.664 2.652a.5.5 0 1 1 .092 1c-.332.027-.677.041-1.028.041z"/><path d="m42.465 71.451a.409.409 0 0 1 -.049 0c-1.979-.189-2.991-2.71-3.188-4.358l.025-4.8a.49.49 0 0 1 .5-.5.5.5 0 0 1 .5.5l-.029 4.741c.156 1.269.994 3.3 2.288 3.419a.5.5 0 0 1 -.047 1z"/><path d="m34.613 71.451a.5.5 0 0 1 -.06-1c3.068-.377 4.454-2.015 4.709-3.3a.5.5 0 1 1 .98.193c-.42 2.128-2.605 3.738-5.568 4.1a.434.434 0 0 1 -.061.007z"/><path d="m34.933 68.382a.409.409 0 0 1 -.049 0c-1.978-.189-2.99-2.71-3.188-4.358l.026-2.622a.5.5 0 0 1 .5-.494h.006a.5.5 0 0 1 .494.506l-.03 2.556c.156 1.266 1 3.293 2.288 3.417a.5.5 0 0 1 -.047 1z"/><path d="m27.081 68.382a.5.5 0 0 1 -.06-1c3.069-.377 4.455-2.015 4.71-3.3a.5.5 0 1 1 .98.193c-.42 2.128-2.606 3.738-5.569 4.1a.434.434 0 0 1 -.061.007z"/><path d="m11.317 33.045a.5.5 0 0 1 -.5-.46l-.056-.744a.5.5 0 0 1 .464-.534.514.514 0 0 1 .534.463l.054.736a.5.5 0 0 1 -.459.538z"/><path d="m14.563 44.722a.5.5 0 0 1 -.446-.275 31.964 31.964 0 0 1 -2.947-9.147.5.5 0 0 1 .986-.164 30.987 30.987 0 0 0 2.853 8.864.5.5 0 0 1 -.446.725z"/><path d="m56.839 20.262a.5.5 0 0 1 -.292-.906l.4-.286a.5.5 0 0 1 .584.812l-.4.286a.5.5 0 0 1 -.292.094z"/><path d="m59.485 18.355a.5.5 0 0 1 -.292-.906l2.854-2.056a5.709 5.709 0 0 1 7.153.365.5.5 0 1 1 -.666.745 4.707 4.707 0 0 0 -5.9-.3l-2.858 2.059a.5.5 0 0 1 -.291.093z"/><path d="m38.815 43.822c-6.841 0-13.476-4.572-13.8-4.8a.5.5 0 1 1 .572-.82c.089.062 8.974 6.184 16.4 4.226a19.326 19.326 0 0 0 9.235-5.667 1.051 1.051 0 0 0 .21-1.1 1.112 1.112 0 0 0 -.949-.72 46.629 46.629 0 0 1 -15.21-4.189.5.5 0 1 1 .422-.906 45.659 45.659 0 0 0 14.886 4.1 2.12 2.12 0 0 1 1.781 1.354 2.057 2.057 0 0 1 -.407 2.138 20.318 20.318 0 0 1 -9.716 5.962 13.367 13.367 0 0 1 -3.424.422z"/><path d="m37.26 56.485a21.783 21.783 0 0 1 -6.31-.86c-22.581-9.053-16.684-33.825-15.95-36.563a2.536 2.536 0 0 1 -.658-.679 4.015 4.015 0 0 1 .091-4.318 12.707 12.707 0 0 0 -4.021.953.5.5 0 0 1 -.691-.575 6.824 6.824 0 0 1 2.944-3.982 4.84 4.84 0 0 1 -.423-.811 4.335 4.335 0 0 1 -.356-1.727 5.542 5.542 0 0 1 .8-2.778 1.277 1.277 0 0 1 1.191-.631.328.328 0 0 0 .348-.223 1.3 1.3 0 0 1 1.088-.934l.584-.08a.3.3 0 0 0 .231-.161l.169-.305a1.317 1.317 0 0 1 1.4-.648l.6.12a.275.275 0 0 0 .241-.052l.638-.486a1.292 1.292 0 0 1 1.082-.245 1.266 1.266 0 0 1 .863.681 6.2 6.2 0 0 1 .372 3.767 7.829 7.829 0 0 1 4.877 4.294c.316.842.585 1.749.869 2.709 1.173 3.963 2.633 8.9 8.873 12.711a20.927 20.927 0 0 0 10.906 1.36 19.045 19.045 0 0 0 8.239-3.042l8.543-6.154a2.753 2.753 0 0 1 3.407.174 2.662 2.662 0 0 1 .892 1.863 2.7 2.7 0 0 1 -.7 1.964l-1.663 2.024a2.246 2.246 0 0 1 .736 1.248c.313 1.163-.846 2.095-1.675 2.6a2.518 2.518 0 0 1 .503 1.301c.175 1.354-1.1 2.137-1.943 2.5a2.7 2.7 0 0 1 .272 2.077 3.059 3.059 0 0 1 -1.591 1.788 2.3 2.3 0 0 1 .233 1.981 11.162 11.162 0 0 1 -2.471 3.986 16.622 16.622 0 0 0 -1.395 1.815c-6.313 11.176-15.205 13.338-21.145 13.338zm-21.26-37.306c-.433 1.544-7.018 26.562 15.3 35.509.643.218 16.41 5.362 26.248-12.052a17.576 17.576 0 0 1 1.488-1.948 10.408 10.408 0 0 0 2.277-3.628c.1-.322.138-.86-.043-1.048-.1-.11-.37-.119-.72-.026a.5.5 0 0 1 -.268-.963c.783-.229 2.166-.84 2.374-1.68a1.627 1.627 0 0 0 -.439-1.674.5.5 0 0 1 .177-.878c.021-.005 2.052-.584 1.912-1.663-.108-.884-.531-1-.549-1a.515.515 0 0 1 -.391-.444.494.494 0 0 1 .283-.5c.656-.292 2.037-1.153 1.86-1.813-.171-.627-.436-.8-.544-.784a.481.481 0 0 1 -.509-.238.507.507 0 0 1 .059-.575l2.12-2.58.018-.02a1.71 1.71 0 0 0 .446-1.249 1.672 1.672 0 0 0 -.56-1.171 1.727 1.727 0 0 0 -2.15-.112l-8.565 6.174a20.078 20.078 0 0 1 -8.7 3.211 21.908 21.908 0 0 1 -11.483-1.472c-6.619-4.055-8.141-9.19-9.361-13.318-.278-.942-.542-1.833-.846-2.639a6.843 6.843 0 0 0 -4.649-3.8.5.5 0 0 1 -.375-.625 5.244 5.244 0 0 0 -.187-3.553.271.271 0 0 0 -.187-.146.293.293 0 0 0 -.254.057l-.638.485a1.247 1.247 0 0 1 -1.059.242l-.592-.119a.311.311 0 0 0 -.327.156l-.166.305a1.293 1.293 0 0 1 -.977.666l-.583.079a.306.306 0 0 0 -.257.223 1.3 1.3 0 0 1 -1.251.941h-.123a.276.276 0 0 0 -.263.14 4.533 4.533 0 0 0 -.664 2.271 3.364 3.364 0 0 0 .28 1.344 3.993 3.993 0 0 0 .607 1.021.5.5 0 0 1 -.14.75 6.39 6.39 0 0 0 -2.6 2.68 12.574 12.574 0 0 1 4.333-.653.5.5 0 0 1 .38.793c-.629.868-1.542 2.537-.579 3.968a1.343 1.343 0 0 0 .636.539.5.5 0 0 1 .24.754z"/></g><path d="m30.824 27.383a.645.645 0 0 1 -.4-.137q-.248-.193-.481-.39a.65.65 0 1 1 .834-1q.217.182.446.36a.65.65 0 0 1 -.4 1.163z" fill="#fff"/><path d="m28.1 24.759a.648.648 0 0 1 -.5-.232 20.2 20.2 0 0 1 -3.549-6.482.65.65 0 0 1 1.229-.427 18.411 18.411 0 0 0 3.316 6.073.65.65 0 0 1 -.5 1.068z" fill="#fff"/></g></svg>