<svg height="512" viewBox="0 0 74 74" width="512" xmlns="http://www.w3.org/2000/svg"><g id="line_color" data-name="line color"><path d="m70.179 32.86a33.93 33.93 0 0 1 -14.69 27.97h-38.621a34.006 34.006 0 0 1 -13.349-37.44c1.43 1.12 2.53 2.55 5.28 2.54 4.57 0 4.57-3.91 9.14-3.93 4.57 0 4.57 3.94 9.13 3.93s4.57-3.91 9.14-3.93c4.56 0 4.56 3.94 9.12 3.93s4.57-3.91 9.14-3.93c4.57 0 4.57 3.94 9.12 3.93 2.74 0 3.83-1.4 5.25-2.52a33.509 33.509 0 0 1 1.34 9.45z" fill="#89c5cd"/><path d="m12.739 57.344a34.19 34.19 0 0 0 3.937 3.2h38.624a34.19 34.19 0 0 0 3.937-3.2z" fill="#6eaaad"/><path d="m69.986 32.57a33.93 33.93 0 0 1 -14.686 27.97h-3.21a33.93 33.93 0 0 0 14.69-27.97 33.379 33.379 0 0 0 -.83-7.46 13.957 13.957 0 0 0 2.7-1.99 33.509 33.509 0 0 1 1.336 9.45z" fill="#6eaaad"/><path d="m68.646 23.12c-1.42 1.12-2.51 2.52-5.25 2.52-4.55.01-4.55-3.93-9.12-3.93-4.57.02-4.57 3.93-9.14 3.93s-4.56-3.93-9.12-3.93c-4.57.02-4.57 3.93-9.14 3.93s-4.56-3.93-9.13-3.93c-4.57.02-4.57 3.93-9.14 3.93-2.75.01-3.85-1.42-5.28-2.54a34.07 34.07 0 0 1 9.72-15.58h45.9a34 34 0 0 1 9.46 14.8c.08.26.17.53.24.8z" fill="#e1e6e9"/><path d="m41.805 29.36a.7.7 0 0 1 -.37-.106c-.3-.187-.58-.39-.852-.6a.7.7 0 0 1 .853-1.11c.237.182.479.359.74.521a.7.7 0 0 1 -.371 1.294z" fill="#fff"/><path d="m45.136 30.263h-.258a.7.7 0 0 1 .034-1.4h.224a5.866 5.866 0 0 0 4.142-1.652 7.309 7.309 0 0 1 5-1.96.7.7 0 0 1 0 1.4 5.9 5.9 0 0 0 -4.135 1.66 7.269 7.269 0 0 1 -5.007 1.952z" fill="#fff"/><path d="m68.648 23.119a16.564 16.564 0 0 1 -2.469 1.881c-1.79-5.44-7.59-13.49-11.8-17.48h4.57a34 34 0 0 1 9.46 14.8c.08.259.17.529.239.799z" fill="#d5d6db"/><path d="m67.479 68.052c-.125-4.748-2.954-7.509-6.435-7.509h-50.116c-3.481 0-6.31 2.761-6.435 7.509z" fill="#fcd462"/><path d="m67.146 65.635h-.154c-.86-3.245-3.238-5.1-6.071-5.1h-3.21c2.833 0 5.211 1.851 6.071 5.1h-58.955a10.552 10.552 0 0 0 -.333 2.417h62.985a10.552 10.552 0 0 0 -.333-2.417z" fill="#f7be56"/><path d="m19.317 50.659a.5.5 0 0 1 -.487-.391c-.106-.474-1-4.68.275-6.315.967-1.243-.508-2.886-2.7-5.071l-.167-.167a2.627 2.627 0 0 1 -.806-1.937c.014-1.916 1.91-3.779 1.991-3.857a.5.5 0 0 1 .7.717c-.017.016-1.678 1.654-1.688 3.149a1.641 1.641 0 0 0 .513 1.221l.167.167c2.045 2.042 4.363 4.357 2.779 6.393-.742.954-.448 3.87-.088 5.483a.5.5 0 0 1 -.379.6.494.494 0 0 1 -.11.008z" fill="#323c6b"/><path d="m12.283 47.26a.5.5 0 0 1 -.487-.391c-.106-.474-1-4.681.274-6.315.967-1.243-.508-2.886-2.7-5.071l-.167-.167a2.627 2.627 0 0 1 -.803-1.938c.014-1.916 1.91-3.779 1.99-3.857a.5.5 0 0 1 .7.717c-.017.016-1.678 1.654-1.688 3.149a1.641 1.641 0 0 0 .513 1.221l.167.166c2.045 2.042 4.362 4.357 2.778 6.394-.834 1.072-.346 4.322-.087 5.483a.5.5 0 0 1 -.379.6.494.494 0 0 1 -.111.009z" fill="#323c6b"/><path d="m35.683 37.377a6.7 6.7 0 0 1 3.087-3.2 1.414 1.414 0 0 1 1.135-.059 28.666 28.666 0 0 1 3.524 1.636.86.86 0 0 1 .208 1.289 3.435 3.435 0 0 0 -.526.829" fill="#d5d6db"/><path d="m43.111 38.371a.493.493 0 0 1 -.144-.021.5.5 0 0 1 -.334-.623 3.727 3.727 0 0 1 .617-1 .379.379 0 0 0 .085-.305.355.355 0 0 0 -.167-.242 28.019 28.019 0 0 0 -3.443-1.6.906.906 0 0 0 -.727.039 6.2 6.2 0 0 0 -2.853 2.949.5.5 0 0 1 -.921-.391 7.138 7.138 0 0 1 3.323-3.451 1.91 1.91 0 0 1 1.533-.081 28.783 28.783 0 0 1 3.61 1.677 1.358 1.358 0 0 1 .63.926 1.386 1.386 0 0 1 -.294 1.1 3.052 3.052 0 0 0 -.436.658.5.5 0 0 1 -.479.365z" fill="#323c6b"/><path d="m39.506 48.466a5.773 5.773 0 0 0 2.854 2.967 1.414 1.414 0 0 0 1.135.059 28.666 28.666 0 0 0 3.524-1.636.86.86 0 0 0 .208-1.289 6.586 6.586 0 0 1 -.664-1.168" fill="#d5d6db"/><path d="m42.992 52.083a1.9 1.9 0 0 1 -.858-.2 6.3 6.3 0 0 1 -3.088-3.217.5.5 0 1 1 .92-.392 5.256 5.256 0 0 0 2.618 2.715.92.92 0 0 0 .736.039 28.045 28.045 0 0 0 3.438-1.594.35.35 0 0 0 .166-.241.378.378 0 0 0 -.086-.306 6.741 6.741 0 0 1 -.753-1.338.5.5 0 1 1 .957-.289 6.729 6.729 0 0 0 .573 1 1.388 1.388 0 0 1 .295 1.1 1.356 1.356 0 0 1 -.629.925 28.81 28.81 0 0 1 -3.6 1.676 1.949 1.949 0 0 1 -.689.122z" fill="#323c6b"/><path d="m33.384 42.816a5.5 5.5 0 0 1 -1.56 3.855 11.429 11.429 0 0 1 -4.3-3.8 14.614 14.614 0 0 1 4.254-3.959 5.521 5.521 0 0 1 1.606 3.904z" fill="#d5d6db"/><path d="m57.5 48.218a13.33 13.33 0 0 1 -3.4-2.551c-.874-1.058-1.659-.713-1.659-.713-10.289 4.931-16.83 3.748-20.613 1.717a5.548 5.548 0 0 0 -.045-7.76c3.855-2.318 10.262-3.461 19.64 3.322a1.473 1.473 0 0 0 1.614-.094c2.766-3.869 4.976-3.658 4.976-3.658a11.83 11.83 0 0 0 -.513 9.737z" fill="#eeefee"/><g fill="#323c6b"><path d="m27.319 30.38h-.419a.5.5 0 0 1 0-1h.417a.5.5 0 0 1 0 1z"/><path d="m23.819 34.527h-.419a.5.5 0 0 1 0-1h.417a.5.5 0 1 1 0 1z"/><path d="m30.663 34.527h-.417a.5.5 0 0 1 0-1h.417a.5.5 0 1 1 0 1z"/><path d="m25.861 5.016h-11.625a.5.5 0 0 1 0-1h11.625a.5.5 0 0 1 0 1z"/><path d="m29.429 5.016h-1.193a.5.5 0 0 1 0-1h1.192a.5.5 0 0 1 0 1z"/><path d="m30.8 42.692a.5.5 0 0 1 -.47-.671.719.719 0 0 1 .539-.473.752.752 0 0 1 .725.327.5.5 0 0 1 -.59.773.505.505 0 0 1 -.204.044z"/><path d="m31.824 47.171a.5.5 0 0 1 -.236-.06 11.849 11.849 0 0 1 -4.5-3.991.5.5 0 0 1 .027-.544 14.945 14.945 0 0 1 4.4-4.094.5.5 0 0 1 .612.077 6.048 6.048 0 0 1 .048 8.461.5.5 0 0 1 -.351.151zm-3.688-4.286a11.5 11.5 0 0 0 3.584 3.156 5.053 5.053 0 0 0 -.028-6.487 13.932 13.932 0 0 0 -3.556 3.331z"/><path d="m39.3 48.923a16.089 16.089 0 0 1 -7.715-1.811.5.5 0 0 1 -.122-.789 5.048 5.048 0 0 0 -.042-7.06.5.5 0 0 1 .1-.781c3.878-2.33 10.528-3.644 20.191 3.345a.914.914 0 0 0 .965-.05c2.877-3.982 5.278-3.8 5.38-3.794a.5.5 0 0 1 .406.708 11.263 11.263 0 0 0 -.5 9.341.5.5 0 0 1 -.7.628 13.645 13.645 0 0 1 -3.559-2.679c-.6-.723-1.064-.571-1.084-.562-5.406 2.592-9.806 3.504-13.32 3.504zm-6.68-2.408c3.658 1.739 9.908 2.634 19.6-2.012a1.943 1.943 0 0 1 2.26.845 9.466 9.466 0 0 0 2.12 1.752 12.31 12.31 0 0 1 .583-7.957 8.43 8.43 0 0 0 -3.743 3.287.5.5 0 0 1 -.1.1 1.938 1.938 0 0 1 -2.182.129c-8.819-6.377-14.912-5.592-18.6-3.62a6.056 6.056 0 0 1 .059 7.475z"/><path d="m8.576 26.14a6.794 6.794 0 0 1 -4.856-2.064c-.231-.2-.462-.395-.7-.583a.5.5 0 0 1 -.172-.534 34.545 34.545 0 0 1 9.861-15.809.5.5 0 0 1 .337-.131h45.9a.5.5 0 0 1 .337.131 34.529 34.529 0 0 1 9.6 15.019l.061.194c.065.208.131.419.186.631a.5.5 0 0 1 -.174.518c-.231.183-.454.373-.676.563a6.729 6.729 0 0 1 -4.88 2.065h-.019a6.679 6.679 0 0 1 -4.858-2.082 5.789 5.789 0 0 0 -8.482 0 6.919 6.919 0 0 1 -4.919 2.082 6.694 6.694 0 0 1 -4.87-2.084 5.8 5.8 0 0 0 -4.231-1.846 5.875 5.875 0 0 0 -4.24 1.848 6.746 6.746 0 0 1 -4.9 2.082h-.019a6.7 6.7 0 0 1 -4.869-2.083 5.791 5.791 0 0 0 -8.482 0 6.677 6.677 0 0 1 -4.935 2.083zm-4.676-3.22c.158.13.313.263.469.4a5.828 5.828 0 0 0 8.485-.017 6.774 6.774 0 0 1 9.786 0 5.8 5.8 0 0 0 4.218 1.84h.017a5.843 5.843 0 0 0 4.25-1.841 6.782 6.782 0 0 1 4.889-2.089 6.709 6.709 0 0 1 4.886 2.087 5.792 5.792 0 0 0 4.218 1.842h.017a5.843 5.843 0 0 0 4.25-1.841 6.773 6.773 0 0 1 9.787 0 5.779 5.779 0 0 0 4.207 1.838h.021a5.827 5.827 0 0 0 4.235-1.825c.147-.126.3-.252.445-.376-.028-.092-.057-.184-.085-.275l-.062-.2a33.52 33.52 0 0 0 -9.182-14.443h-45.51a33.551 33.551 0 0 0 -9.341 14.9z"/><path d="m55.3 61.04h-38.624a.5.5 0 0 1 -.284-.089 34.508 34.508 0 0 1 -13.546-37.99.5.5 0 0 1 .789-.255c.252.2.494.4.735.61a5.828 5.828 0 0 0 8.485-.017 6.774 6.774 0 0 1 9.786 0 5.8 5.8 0 0 0 4.218 1.84h.017a5.843 5.843 0 0 0 4.25-1.841 6.782 6.782 0 0 1 4.889-2.089 6.709 6.709 0 0 1 4.885 2.091 5.792 5.792 0 0 0 4.218 1.842h.017a5.843 5.843 0 0 0 4.25-1.841 6.773 6.773 0 0 1 9.787 0 5.779 5.779 0 0 0 4.207 1.838h.021a5.827 5.827 0 0 0 4.235-1.825c.232-.2.465-.4.707-.588a.5.5 0 0 1 .79.252 34.038 34.038 0 0 1 1.36 9.591 34.512 34.512 0 0 1 -14.911 28.382.5.5 0 0 1 -.281.089zm-38.463-1h38.303a33.51 33.51 0 0 0 14.346-27.47 33.152 33.152 0 0 0 -1.113-8.57l-.093.08a6.729 6.729 0 0 1 -4.88 2.06h-.019a6.679 6.679 0 0 1 -4.858-2.082 5.789 5.789 0 0 0 -8.482 0 6.919 6.919 0 0 1 -4.919 2.082 6.694 6.694 0 0 1 -4.87-2.084 5.8 5.8 0 0 0 -4.231-1.846 5.875 5.875 0 0 0 -4.24 1.848 6.746 6.746 0 0 1 -4.9 2.082h-.019a6.7 6.7 0 0 1 -4.869-2.083 5.791 5.791 0 0 0 -8.482 0 6.677 6.677 0 0 1 -4.935 2.083 6.794 6.794 0 0 1 -4.856-2.064l-.118-.1a33.505 33.505 0 0 0 13.231 36.064z"/><path d="m67.479 68.552h-62.985a.5.5 0 0 1 -.5-.513c.125-4.782 2.912-8 6.935-8h50.115c4.022 0 6.809 3.213 6.935 8a.5.5 0 0 1 -.5.513zm-62.46-1h61.935c-.284-3.915-2.612-6.508-5.91-6.508h-50.116c-3.297-.001-5.628 2.593-5.909 6.508z"/><path d="m71.705 42.656a.5.5 0 0 1 -.483-.63c.083-.306.152-.616.221-.926l.083-.369a.5.5 0 1 1 .975.225l-.082.363c-.073.323-.146.647-.231.967a.5.5 0 0 1 -.483.37z"/><path d="m66.379 54.094a.5.5 0 0 1 -.411-.784 36.678 36.678 0 0 0 4.322-8.324.5.5 0 0 1 .94.341 37.7 37.7 0 0 1 -4.44 8.551.5.5 0 0 1 -.411.216z"/></g></g></svg>