<svg height="512" viewBox="0 0 74 74" width="512" xmlns="http://www.w3.org/2000/svg"><g id="line_color" data-name="line color"><path d="m8.339 33.915c-4.773-1.932-4.955-8.75-4.955-8.75s1.725 4.619 6.253 5.708" fill="#eeefee"/><path d="m8.339 34.415a.5.5 0 0 1 -.187-.037c-5.02-2.032-5.26-8.909-5.268-9.2a.5.5 0 0 1 .968-.188c.017.043 1.7 4.385 5.9 5.4a.5.5 0 0 1 -.234.973 9.25 9.25 0 0 1 -5.228-3.6c.514 2.022 1.664 4.648 4.234 5.688a.5.5 0 0 1 -.187.963z" fill="#323c6b"/><path d="m57.881 18.649a.5.5 0 0 1 -.466-.318c-1.03-2.64-4.349-2.3-4.382-2.295a.507.507 0 0 1 -.553-.441.5.5 0 0 1 .441-.553c1.413-.16 4.379.247 5.425 2.926a.5.5 0 0 1 -.466.682z" fill="#323c6b"/><path d="m61.613 18.222a.5.5 0 0 1 -.5-.448 4.555 4.555 0 0 0 -4.069-4.343.5.5 0 0 1 .07-1 5.61 5.61 0 0 1 4.993 5.237.5.5 0 0 1 -.445.549z" fill="#323c6b"/><path d="m39.9 48.624c-.584 2.214-1.1 3.721-1.1 3.721l.324 4.074v7.007l-1.06.1a1.974 1.974 0 0 1 2.128.454c1.021 1.292.142 2.915-2.333 2.78h-1.14a1.356 1.356 0 0 1 -1.34-1.573 17.051 17.051 0 0 0 .079-5.821 13.868 13.868 0 0 1 -.279-2.883 14.059 14.059 0 0 0 -1.42-6.913" fill="#e1e6e9"/><path d="m38.139 67.267c-.1 0-.2 0-.3-.009h-1.116a1.855 1.855 0 0 1 -1.833-2.153 16.439 16.439 0 0 0 .081-5.648 14.222 14.222 0 0 1 -.288-2.986 13.678 13.678 0 0 0 -1.354-6.655.5.5 0 1 1 .869-.494 14.669 14.669 0 0 1 1.485 7.171 13.249 13.249 0 0 0 .271 2.778 17.4 17.4 0 0 1 -.077 5.994.857.857 0 0 0 .847.994h1.141c1.075.061 1.87-.231 2.151-.774a1.093 1.093 0 0 0 -.211-1.2 1 1 0 0 0 -.67-.361l-1.02.1a.49.49 0 0 1 -.539-.414.5.5 0 0 1 .371-.569 4.249 4.249 0 0 1 .682-.117v-6.5l-.329-4.039a.5.5 0 0 1 .024-.2c0-.015.515-1.519 1.087-3.687a.5.5 0 1 1 .967.255c-.5 1.886-.95 3.282-1.073 3.655l.316 3.973v6.635a1.927 1.927 0 0 1 .96.654 2.076 2.076 0 0 1 .314 2.277 2.949 2.949 0 0 1 -2.756 1.32z" fill="#323c6b"/><path d="m15.541 47.278c.081.275.183.61.293.965a14.867 14.867 0 0 1 .617 5.533 14.831 14.831 0 0 0 .01 2.428l.782 9.055a1.641 1.641 0 0 0 1.635 1.5h1.222c2.474.136 3.354-1.488 2.333-2.78a2.116 2.116 0 0 0 -2.36-.389l.627-.144a33.266 33.266 0 0 1 -.319-6.926s-.715-5.52 1.694-8.97" fill="#e1e6e9"/><path d="m20.376 67.267c-.1 0-.2 0-.3-.009h-1.197a2.129 2.129 0 0 1 -2.133-1.958l-.782-9.054a15.271 15.271 0 0 1 -.011-2.51 14.316 14.316 0 0 0 -.6-5.347c-.11-.357-.214-.7-.295-.971a.5.5 0 1 1 .959-.283c.081.273.183.607.291.959a15.278 15.278 0 0 1 .638 5.72 14.468 14.468 0 0 0 .011 2.346l.782 9.055a1.135 1.135 0 0 0 1.137 1.042h1.224c1.073.061 1.869-.231 2.15-.774a1.093 1.093 0 0 0 -.211-1.2 1.286 1.286 0 0 0 -1.241-.353l-.614.141a.5.5 0 0 1 -.258-.965q.11-.034.217-.062a33.091 33.091 0 0 1 -.267-6.521c-.074-.63-.6-5.848 1.788-9.266a.5.5 0 0 1 .82.573c-2.272 3.25-1.616 8.566-1.609 8.62a.5.5 0 0 1 0 .108 31.838 31.838 0 0 0 .256 6.346 2.041 2.041 0 0 1 1.689.759 2.076 2.076 0 0 1 .313 2.276 2.947 2.947 0 0 1 -2.757 1.328z" fill="#323c6b"/><path d="m13.21 63.554a2.04 2.04 0 0 1 2.237.425c1.021 1.292.142 2.915-2.333 2.78h-1.15a1.641 1.641 0 0 1 -1.639-1.568l-.63-14.273s-3.876-8.75-1.118-17.839c1.821-6 8.79-6.05 12.741-4.261a18.777 18.777 0 0 0 4.853 1.262 16.524 16.524 0 0 0 8.883-1.18 18.357 18.357 0 0 1 9.078-1.348 6.246 6.246 0 0 0 4.261-1.132 28.9 28.9 0 0 0 6.892-6.37 6.311 6.311 0 0 1 2.316-1.79c3.559-1.584 7.181-.2 8 3.564 2.012.88 4.125 5.3 4.867 7.451.027.079.106.324.2.63a2.6 2.6 0 0 1 -.922 2.852 2.59 2.59 0 0 1 -3.1 0l-.613-.46c-1.155-.728-2.056-.349-2.762-.443-3.742-.5-3.916-2.276-3.916-2.276s-1.888.106-4.208 3.267a13.37 13.37 0 0 0 -2.947 8.355 7.334 7.334 0 0 1 -6.69 7.425l.317 7.2v7.755l-.438.152c.764-.3 2.074-.636 2.77.245 1.021 1.292.142 2.915-2.333 2.78h-2.356a1.364 1.364 0 0 1 -1.346-1.58 17.362 17.362 0 0 0 -.286-7.823 34.378 34.378 0 0 0 -1.438-7.473 1.655 1.655 0 0 0 -2.066-1c-.808.244-1.513.373-1.513.373-9.537 1.446-15.251-1.971-15.251-1.971-9.193-.317-7.643 9.237-7.643 9.237a33.185 33.185 0 0 0 .315 6.893z" fill="#e1e6e9"/><path d="m69.821 32.691a.235.235 0 0 0 -.02-.08c-.09-.31-.17-.55-.2-.63-.74-2.16-2.86-6.58-4.87-7.46-.83-3.82-4.55-5.19-8.17-3.48a6.632 6.632 0 0 0 -2.23 1.82 28.832 28.832 0 0 1 -6.8 6.26 6.242 6.242 0 0 1 -4.26 1.13 18.463 18.463 0 0 0 -9.08 1.35 16.488 16.488 0 0 1 -8.88 1.18 18.423 18.423 0 0 1 -4.86-1.26c-3.66-1.66-9.92-1.74-12.26 3.04.11-.49.24-.99.39-1.48 1.82-6 8.78-6.05 12.74-4.26a19.259 19.259 0 0 0 4.85 1.26 16.571 16.571 0 0 0 8.88-1.18 18.245 18.245 0 0 1 9.08-1.35 6.28 6.28 0 0 0 4.26-1.13 28.9 28.9 0 0 0 6.81-6.27 6.557 6.557 0 0 1 2.23-1.82c3.61-1.7 7.34-.34 8.17 3.49 2.01.88 4.12 5.29 4.86 7.45.03.08.11.33.21.63a2.619 2.619 0 0 1 -.85 2.79z" fill="#d5d6db"/><g fill="#323c6b"><path d="m52.556 48.8a.5.5 0 0 1 -.367-.839 9.872 9.872 0 0 0 2.493-6.494.491.491 0 0 1 .521-.479.5.5 0 0 1 .479.52 10.839 10.839 0 0 1 -2.759 7.131.5.5 0 0 1 -.367.161z"/><path d="m49.654 50.976a.5.5 0 0 1 -.226-.946c.226-.114.446-.253.668-.392l.086-.054a.5.5 0 0 1 .529.849c-.332.208-.58.362-.832.49a.5.5 0 0 1 -.225.053z"/><path d="m23.238 26.848a.507.507 0 0 1 -.164-.027c-.26-.09-.508-.184-.725-.281a.5.5 0 1 1 .41-.912c.191.086.412.168.643.248a.5.5 0 0 1 -.164.973z"/><path d="m28.516 27.744a19.133 19.133 0 0 1 -2.871-.311.5.5 0 1 1 .178-.984 18.069 18.069 0 0 0 2.693.295 12.84 12.84 0 0 0 5.145-1.058.5.5 0 1 1 .4.917 13.833 13.833 0 0 1 -5.545 1.141z"/><circle cx="62.486" cy="24.205" r="1.04"/><path d="m13.391 67.267c-.1 0-.2 0-.3-.009h-1.127a2.137 2.137 0 0 1 -2.139-2.046l-.625-14.181c-.426-1-3.766-9.319-1.1-18.1a7.487 7.487 0 0 1 4.14-4.8 12 12 0 0 1 9.286.231 18.031 18.031 0 0 0 4.718 1.223 15.985 15.985 0 0 0 8.613-1.146 18.832 18.832 0 0 1 9.328-1.388 5.72 5.72 0 0 0 3.915-1.043 28.814 28.814 0 0 0 6.8-6.278 6.825 6.825 0 0 1 2.5-1.93 6.708 6.708 0 0 1 5.756-.074 5.625 5.625 0 0 1 2.876 3.751c2.285 1.25 4.348 6.007 4.907 7.632.023.069.086.261.166.51l.051.157a3.014 3.014 0 0 1 -1.064 3.344 3.09 3.09 0 0 1 -3.747.03l-.613-.46a2.677 2.677 0 0 0 -1.766-.343 3.973 3.973 0 0 1 -.763 0c-2.844-.378-3.831-1.5-4.171-2.185a7.676 7.676 0 0 0 -3.484 2.976 12.864 12.864 0 0 0 -2.849 8.08 7.764 7.764 0 0 1 -6.67 7.842l.3 6.752v7.148a2.236 2.236 0 0 1 2.225.715 2.076 2.076 0 0 1 .313 2.276 3.085 3.085 0 0 1 -3.067 1.307h-2.329a1.864 1.864 0 0 1 -1.84-2.156 17.069 17.069 0 0 0 -.265-7.583.481.481 0 0 1 -.026-.128 34.147 34.147 0 0 0 -1.409-7.347 1.152 1.152 0 0 0 -1.449-.681 15.877 15.877 0 0 1 -1.567.387 26.454 26.454 0 0 1 -14.5-1.5 4.941 4.941 0 0 0 -2.591-.4 5.8 5.8 0 0 0 -4.1 2.211c-1.891 2.53-1.308 6.335-1.3 6.374a.48.48 0 0 1 0 .124 32.077 32.077 0 0 0 .262 6.4 1.944 1.944 0 0 1 1.153.7 2.076 2.076 0 0 1 .313 2.276 2.947 2.947 0 0 1 -2.761 1.332zm28.942-10.011a18.16 18.16 0 0 1 .286 8 .877.877 0 0 0 .2.706.845.845 0 0 0 .652.3h2.354c1.07.061 1.869-.231 2.15-.774a1.093 1.093 0 0 0 -.211-1.2c-.4-.5-1.16-.415-1.762-.239l-.014.005-.438.152a.5.5 0 0 1 -.348-.937l.122-.047v-7.394l-.317-7.181a.5.5 0 0 1 .462-.521 6.793 6.793 0 0 0 6.231-6.939 13.934 13.934 0 0 1 3.042-8.646c2.432-3.313 4.5-3.465 4.583-3.47a.488.488 0 0 1 .526.45s.256 1.4 3.483 1.829a3.142 3.142 0 0 0 .574 0 3.671 3.671 0 0 1 2.39.518l.646.483a2.081 2.081 0 0 0 2.511 0 2.031 2.031 0 0 0 .75-2.264l-.051-.157c-.077-.239-.137-.424-.16-.491-.842-2.444-2.884-6.408-4.595-7.156a.5.5 0 0 1 -.288-.353 4.632 4.632 0 0 0 -2.411-3.313 5.719 5.719 0 0 0 -4.9.1 5.82 5.82 0 0 0 -2.131 1.648 29.154 29.154 0 0 1 -7.026 6.486 6.705 6.705 0 0 1 -4.567 1.2 17.787 17.787 0 0 0 -8.827 1.311 16.985 16.985 0 0 1 -9.149 1.212 18.994 18.994 0 0 1 -4.987-1.3 10.946 10.946 0 0 0 -8.462-.232 6.434 6.434 0 0 0 -3.6 4.183c-2.669 8.8 1.059 17.406 1.1 17.492a.5.5 0 0 1 .043.18l.63 14.273a1.138 1.138 0 0 0 1.14 1.09h1.151c1.07.061 1.869-.231 2.15-.773a1.093 1.093 0 0 0 -.211-1.2 1.042 1.042 0 0 0 -.791-.375l-.985.135a.5.5 0 0 1 -.2-.977 4.569 4.569 0 0 1 .6-.127 32.861 32.861 0 0 1 -.253-6.41c-.08-.559-.531-4.348 1.493-7.062a6.763 6.763 0 0 1 4.773-2.609 5.921 5.921 0 0 1 3.118.471 25.758 25.758 0 0 0 13.94 1.429s.679-.127 1.443-.358a2.146 2.146 0 0 1 2.684 1.313 34.266 34.266 0 0 1 1.457 7.539z"/></g><path d="m27.562 46.234a.676.676 0 0 1 -.108-.009q-.48-.081-.931-.174a.65.65 0 1 1 .264-1.272c.284.059.579.114.882.165a.65.65 0 0 1 -.106 1.291z" fill="#fff"/><path d="m15.323 45.534a.65.65 0 0 1 -.441-1.127 7.226 7.226 0 0 1 4.086-1.79 6.089 6.089 0 0 1 3.2.482l.139.061c.451.2 1.208.527 1.764.709a.65.65 0 0 1 -.406 1.235c-.613-.2-1.4-.547-1.878-.753l-.137-.06a4.783 4.783 0 0 0 -2.512-.385 5.962 5.962 0 0 0 -3.369 1.455.647.647 0 0 1 -.446.173z" fill="#fff"/></g></svg>