<svg height="512" viewBox="0 0 74 74" width="512" xmlns="http://www.w3.org/2000/svg"><g id="line_color" data-name="line color"><path d="m63.059 32.647s4.867 2.023 2.808 10.733 4.118 10.893 4.118 10.893-1.926-5.056 0-9.422c2.808-6.364-.437-14.164-6.926-12.541z" fill="#e7aa6c"/><path d="m69.985 54.773a.492.492 0 0 1 -.167-.029c-.066-.023-6.576-2.438-4.438-11.479 1.926-8.146-2.333-10.079-2.516-10.157a.5.5 0 0 1 -.305-.46v-.338a.5.5 0 0 1 .379-.485 6.152 6.152 0 0 1 6.507 1.989c2.3 2.731 2.711 7.354 1 11.239-1.822 4.131-.009 8.994.01 9.042a.5.5 0 0 1 -.467.678zm-5.972-22.136c1.38 1.007 3.987 3.908 2.341 10.863-1.416 5.988 1.248 8.722 2.8 9.765a13.587 13.587 0 0 1 .376-8.61c1.566-3.55 1.218-7.741-.847-10.191a5.02 5.02 0 0 0 -4.67-1.827z" fill="#323c6b"/><path d="m46.27 46.6 1.3 4.043a15.471 15.471 0 0 1 .743 4.736v1.867a15.471 15.471 0 0 1 -.355 3.3h-.17a1.782 1.782 0 0 0 -1.788 1.43 1.741 1.741 0 0 0 1.708 2.024h2.508a1.623 1.623 0 0 0 1.594-1.319l.456-2.759a15.471 15.471 0 0 0 .168-3.622l-.1-1.431a15.471 15.471 0 0 1 1.02-6.726l.057-.146-1.7-4.812z" fill="#d09865"/><path d="m50.216 64.5h-2.508a2.225 2.225 0 0 1 -1.692-.783 2.218 2.218 0 0 1 1.531-3.665 15.019 15.019 0 0 0 .266-2.808v-1.869a14.96 14.96 0 0 0 -.719-4.583l-1.3-4.043a.5.5 0 0 1 .21-.576l5.438-3.413a.5.5 0 0 1 .737.257l1.7 4.812a.5.5 0 0 1 -.006.349l-.057.146a15.06 15.06 0 0 0 -.987 6.508l.1 1.431a15.98 15.98 0 0 1 -.17 3.737l-.459 2.76a2.128 2.128 0 0 1 -2.084 1.74zm-2.427-3.46a1.278 1.278 0 0 0 -1.294 1.016 1.241 1.241 0 0 0 1.213 1.444h2.507a1.124 1.124 0 0 0 1.1-.912l.454-2.747a15.016 15.016 0 0 0 .163-3.505l-.1-1.431a16.057 16.057 0 0 1 1.042-6.917l-1.43-4.047-4.58 2.874 1.181 3.673a15.957 15.957 0 0 1 .767 4.889v1.867a16.01 16.01 0 0 1 -.366 3.4.5.5 0 0 1 -.489.394z" fill="#323c6b"/><path d="m14.92 16.095c-.576-3.022-2.409-4.518-4.326-6.241a12.812 12.812 0 0 0 -.584 5.774 3.438 3.438 0 0 0 -1.21 4.29l-5.23 7.382a3.117 3.117 0 0 0 4.6 4.14l1.88-1.67-.01.01a7.6 7.6 0 0 0 6.16-1.62l-1.28.83c1.32 1.16 3.97 3.77 4.19 9.71.32 8.34 3.31 9.48 3.31 9.48l.95 13.55-.44 1.62h-.7a1.735 1.735 0 0 0 0 3.47h2.406a2.455 2.455 0 0 0 2.416-2.02l.7-3.865-.191-2.671a15.471 15.471 0 0 1 1.455-7.734l.315-.664-1.381-4.31 2.539 7.9a15.471 15.471 0 0 1 .743 4.736v3.534l-.355 1.628h-.17a1.782 1.782 0 0 0 -1.79 1.446 1.741 1.741 0 0 0 1.708 2.021h2.508a1.623 1.623 0 0 0 1.594-1.321l.456-2.759a15.471 15.471 0 0 0 .168-3.622l-.1-1.431a15.471 15.471 0 0 1 1.02-6.726l1.4-3.592a23.312 23.312 0 0 0 12.73-2.4 20.893 20.893 0 0 0 2.59-1.58l-2.591 1.577a12.692 12.692 0 0 1 5.24 8.97c.16.32.54 8.76.54 8.76l-.07.65h-.176a1.8 1.8 0 0 0 -1.8 1.443 1.741 1.741 0 0 0 1.707 2.027h2.31a2.782 2.782 0 0 0 2.78-2.69l.205-7.108a14.915 14.915 0 0 0 -.035-1.578c-.18-2.339-.521-8.937 1.71-14.2a11.639 11.639 0 0 0 -.021-9.241c-1.43-3.26-4.53-6.11-11.24-4.34-10.14 2.65-16.4 2.1-21.25-1.09 0 0-3.76-2.47-5.32-4.63-1.3-1.81-5.645-7.443-10.615-7.643" fill="#e7aa6c"/><path d="m62.81 41.234c-2.23 5.27-1.89 11.87-1.71 14.21.04.52.05 1.05.04 1.58l-.21 7.1a2.781 2.781 0 0 1 -2.74 2.69c-.861.149-3.572-.231-3.955-1.439 4.059.165 5.215-2.365 4.195-6.021.01-.53 0-1.05-.04-1.58-.18-2.34-.52-8.94 1.71-14.2a11.639 11.639 0 0 0 -.02-9.24c-1.43-3.26-4.53-6.11-11.24-4.34-10.14 2.65-16.4 2.1-21.25-1.09 0 0-3.76-2.47-5.32-4.63-1.3-1.81-5.64-7.45-10.61-7.65l.02.07a8.729 8.729 0 0 0 -1.77-2.6 13.349 13.349 0 0 1 .68-4.24c1.51 1.36 2.97 2.57 3.8 4.51l-.02-.07c4.97.2 9.31 5.83 10.61 7.64 1.56 2.16 5.32 4.63 5.32 4.63 4.85 3.19 11.11 3.74 21.25 1.09 6.71-1.77 9.81 1.08 11.24 4.34a11.638 11.638 0 0 1 .02 9.24z" fill="#d09865"/><g fill="#323c6b"><circle cx="11.995" cy="21.165" r="1.125"/><path d="m64 62.87h-.015a.5.5 0 0 1 -.485-.515l.013-.448a.523.523 0 0 1 .515-.485.5.5 0 0 1 .485.515l-.013.448a.5.5 0 0 1 -.5.485z"/><path d="m58.15 70.317a.5.5 0 0 1 0-1 5.267 5.267 0 0 0 5.279-5.12.508.508 0 0 1 .516-.483.5.5 0 0 1 .483.516 6.262 6.262 0 0 1 -6.278 6.087z"/><path d="m38.938 26.8h-.038q-.342-.025-.674-.06a.5.5 0 0 1 -.444-.55.493.493 0 0 1 .55-.444q.316.034.641.057a.5.5 0 0 1 -.036 1z"/><path d="m41.593 26.811a.5.5 0 0 1 -.021-1 42.636 42.636 0 0 0 8.308-1.351.5.5 0 1 1 .241.971 43.638 43.638 0 0 1 -8.5 1.379z"/><path d="m24.636 67.322h-2.406a2.235 2.235 0 0 1 0-4.47h.317l.318-1.173-.925-13.2c-.826-.54-3.056-2.647-3.33-9.764-.189-5.111-2.167-7.649-3.761-9.12a8 8 0 0 1 -4.655.711l-1.694 1.506a3.64 3.64 0 0 1 -5.017-.243 3.608 3.608 0 0 1 -.324-4.559l5.071-7.155a3.907 3.907 0 0 1 1.25-4.443 13.364 13.364 0 0 1 .634-5.707.5.5 0 0 1 .812-.223l.311.279a13.333 13.333 0 0 1 3.463 4.052c4.855.4 9.077 5.586 10.69 7.833a25.093 25.093 0 0 0 5.188 4.5c4.934 3.254 11.17 3.554 20.845 1.027 7.257-1.914 10.436 1.458 11.825 4.624a12.1 12.1 0 0 1 .021 9.638c-2.023 4.775-1.915 10.8-1.67 13.968a15.542 15.542 0 0 1 .036 1.631l-.205 7.108a3.27 3.27 0 0 1 -3.28 3.175h-2.31a2.225 2.225 0 0 1 -1.694-.786 2.251 2.251 0 0 1 -.506-1.82 2.283 2.283 0 0 1 2.02-1.848l.024-.219c-.142-3.01-.4-8.081-.517-8.551a12.37 12.37 0 0 0 -4.813-8.54 23.571 23.571 0 0 1 -12.354 2.341l-1.268 3.248a15.067 15.067 0 0 0 -.987 6.509l.1 1.431a15.968 15.968 0 0 1 -.173 3.74l-.452 2.758a2.128 2.128 0 0 1 -2.087 1.737h-2.508a2.226 2.226 0 0 1 -1.692-.783 2.218 2.218 0 0 1 1.537-3.665l.26-1.194v-3.48a14.94 14.94 0 0 0 -.719-4.583l-.765-2.38a15.008 15.008 0 0 0 -1.188 7l.19 2.671a.507.507 0 0 1 -.006.125l-.7 3.865a2.954 2.954 0 0 1 -2.906 2.429zm-2.406-3.47a1.235 1.235 0 0 0 0 2.47h2.406a1.954 1.954 0 0 0 1.924-1.607l.687-3.8-.186-2.615a16 16 0 0 1 1.5-7.985l.23-.485-1.321-4.122a.5.5 0 0 1 .952-.306l2.539 7.9a15.942 15.942 0 0 1 .767 4.889v3.533a.522.522 0 0 1 -.011.106l-.355 1.629a.5.5 0 0 1 -.489.394h-.17a1.279 1.279 0 0 0 -1.294 1.016 1.241 1.241 0 0 0 1.214 1.444h2.508a1.124 1.124 0 0 0 1.1-.913l.454-2.746a15.028 15.028 0 0 0 .162-3.505l-.1-1.431a16.072 16.072 0 0 1 1.053-6.94l1.4-3.592a.5.5 0 0 1 .5-.317 22.638 22.638 0 0 0 12.436-2.333l2.585-1.576a.5.5 0 0 1 .549.834 22.123 22.123 0 0 1 -1.956 1.244 13.261 13.261 0 0 1 4.811 8.82c.08.395.237 1.926.548 8.815l-.073.726a.5.5 0 0 1 -.5.446h-.176a1.292 1.292 0 0 0 -1.307 1.022 1.24 1.24 0 0 0 1.213 1.448h2.31a2.274 2.274 0 0 0 2.281-2.207l.2-7.105a14.327 14.327 0 0 0 -.021-1.523c-.251-3.257-.359-9.464 1.748-14.437a11.1 11.1 0 0 0 -.017-8.843c-1.792-4.086-5.377-5.451-10.655-4.059-9.976 2.608-16.452 2.259-21.651-1.156a25.588 25.588 0 0 1 -5.45-4.755c-1.473-2.051-5.221-6.681-9.452-7.358a9.2 9.2 0 0 1 .288 1.128.5.5 0 1 1 -.982.188 7.777 7.777 0 0 0 -.5-1.66.471.471 0 0 1 -.03-.068 11.143 11.143 0 0 0 -3.042-3.7 11.877 11.877 0 0 0 -.346 4.812.5.5 0 0 1 -.193.457 2.934 2.934 0 0 0 -1.061 3.682.5.5 0 0 1 -.045.5l-5.23 7.38a2.617 2.617 0 0 0 3.864 3.475l1.876-1.667a.5.5 0 0 1 .518-.091 7.028 7.028 0 0 0 4.369-.7.472.472 0 0 1 .043-.032l1.28-.83a.5.5 0 0 1 .582.812q-.372.294-.744.532c1.291 1.233 3.637 4.025 3.843 9.6.3 7.792 2.971 9.023 3 9.035a.514.514 0 0 1 .312.428l.95 13.55a.487.487 0 0 1 -.016.166l-.434 1.6a.5.5 0 0 1 -.088.193.5.5 0 0 1 -.4.2z"/></g><path d="m23.738 43.636a.649.649 0 0 1 -.634-.511c-.073-.334-.1-.471-.162-.847a.65.65 0 0 1 1.283-.212c.057.347.081.473.148.78a.649.649 0 0 1 -.5.774.656.656 0 0 1 -.135.016z" fill="#fff"/><path d="m23.249 40.048a.65.65 0 0 1 -.647-.6c-.026-.382-.049-.781-.063-1.2a15.034 15.034 0 0 0 -1.659-6.724.65.65 0 1 1 1.14-.624 16.312 16.312 0 0 1 1.817 7.3q.022.6.062 1.152a.65.65 0 0 1 -.6.694z" fill="#fff"/></g></svg>